<svg width="56" height="45" viewBox="0 0 56 45" fill="none" xmlns="http://www.w3.org/2000/svg">
<path d="M50.4 39.375H44.8V14.7656L28 25.3125L11.2 14.7656V39.375H5.6V5.625H8.96L28 17.5781L47.04 5.625H50.4V39.375ZM50.4 0H5.6C2.492 0 0 2.50312 0 5.625V39.375C0 40.8668 0.589998 42.2976 1.6402 43.3525C2.69041 44.4074 4.11479 45 5.6 45H50.4C51.8852 45 53.3096 44.4074 54.3598 43.3525C55.41 42.2976 56 40.8668 56 39.375V5.625C56 4.13316 55.41 2.70242 54.3598 1.64752C53.3096 0.592632 51.8852 0 50.4 0V0Z" fill="#444444"/>
</svg>
