<svg width="225" height="30" viewBox="0 0 225 30" fill="none" xmlns="http://www.w3.org/2000/svg">
<path d="M29.6016 5.68359H38.918C40.3242 5.68359 41.543 5.83203 42.5742 6.12891C43.6055 6.41797 44.4609 6.83984 45.1406 7.39453C45.8203 7.94922 46.3242 8.625 46.6523 9.42188C46.9883 10.2188 47.1562 11.1211 47.1562 12.1289C47.1562 12.8086 47.0742 13.457 46.9102 14.0742C46.7461 14.6836 46.4922 15.2461 46.1484 15.7617C45.8125 16.2773 45.3867 16.7383 44.8711 17.1445C44.3555 17.543 43.75 17.875 43.0547 18.1406L47.0391 24H42.4922L39.0469 18.7969H38.9414L33.3164 18.7852V24H29.6016V5.68359ZM39.0117 15.5742C39.7148 15.5742 40.3281 15.4922 40.8516 15.3281C41.3828 15.1641 41.8242 14.9336 42.1758 14.6367C42.5352 14.3398 42.8008 13.9805 42.9727 13.5586C43.1523 13.1289 43.2422 12.6523 43.2422 12.1289C43.2422 11.1055 42.8906 10.3164 42.1875 9.76172C41.4844 9.19922 40.4258 8.91797 39.0117 8.91797H33.3164V15.5742H39.0117ZM51.5625 5.68359H67.1602V8.94141H55.2773V12.5977H65.8008V15.6562H55.2773V20.7539H67.4062V24H51.5625V5.68359ZM71.5312 5.68359H78.2461C80.207 5.68359 81.9102 5.89453 83.3555 6.31641C84.8008 6.73828 85.9961 7.34375 86.9414 8.13281C87.8945 8.91406 88.6016 9.86719 89.0625 10.9922C89.5312 12.1094 89.7656 13.3672 89.7656 14.7656C89.7656 16.0938 89.5352 17.3242 89.0742 18.457C88.6133 19.582 87.9102 20.5586 86.9648 21.3867C86.0195 22.207 84.8242 22.8516 83.3789 23.3203C81.9336 23.7812 80.2305 24.0117 78.2695 24.0117L71.5312 24V5.68359ZM79.1602 20.7891C80.2695 20.7891 81.2422 20.6484 82.0781 20.3672C82.9141 20.0781 83.6094 19.6719 84.1641 19.1484C84.7266 18.625 85.1484 17.9922 85.4297 17.25C85.7109 16.5078 85.8516 15.6797 85.8516 14.7656C85.8516 13.8672 85.7109 13.0586 85.4297 12.3398C85.1484 11.6133 84.7266 11 84.1641 10.5C83.6094 9.99219 82.9141 9.60156 82.0781 9.32812C81.2422 9.05469 80.2695 8.91797 79.1602 8.91797H75.2461V20.7891H79.1602ZM101.461 5.68359H111.246C112.441 5.68359 113.48 5.8125 114.363 6.07031C115.254 6.32031 115.992 6.66797 116.578 7.11328C117.164 7.55859 117.598 8.08984 117.879 8.70703C118.168 9.31641 118.312 9.97656 118.312 10.6875C118.312 11.8516 117.945 12.8711 117.211 13.7461C118.055 14.2461 118.684 14.8945 119.098 15.6914C119.512 16.4883 119.719 17.3945 119.719 18.4102C119.719 19.2617 119.574 20.0312 119.285 20.7188C119.004 21.4062 118.57 21.9961 117.984 22.4883C117.406 22.9727 116.672 23.3477 115.781 23.6133C114.898 23.8711 113.855 24 112.652 24H101.461V5.68359ZM112.676 12.7148C112.996 12.7148 113.309 12.7266 113.613 12.75C114.137 12.25 114.398 11.6797 114.398 11.0391C114.398 10.375 114.137 9.86328 113.613 9.50391C113.098 9.13672 112.34 8.95312 111.34 8.95312H105.176V12.7148H112.676ZM112.746 20.7656C113.746 20.7656 114.504 20.5508 115.02 20.1211C115.543 19.6914 115.805 19.0859 115.805 18.3047C115.805 17.5234 115.543 16.9141 115.02 16.4766C114.504 16.0391 113.746 15.8203 112.746 15.8203H105.176V20.7656H112.746ZM129.738 5.68359H133.676L142.535 24H138.633L137.168 20.918H126.469L125.051 24H121.137L129.738 5.68359ZM135.703 17.8594L131.742 9.53906L127.887 17.8594H135.703ZM145.383 5.68359H149.098V15.1641L158.766 5.68359H163.523L154.5 14.4258L163.523 24H158.578L151.828 17.0156L149.098 19.6523V24H145.383V5.68359ZM165.352 5.68359H180.949V8.94141H169.066V12.5977H179.59V15.6562H169.066V20.7539H181.195V24H165.352V5.68359ZM185.32 5.68359H194.637C196.043 5.68359 197.262 5.83203 198.293 6.12891C199.324 6.41797 200.18 6.83984 200.859 7.39453C201.539 7.94922 202.043 8.625 202.371 9.42188C202.707 10.2188 202.875 11.1211 202.875 12.1289C202.875 12.8086 202.793 13.457 202.629 14.0742C202.465 14.6836 202.211 15.2461 201.867 15.7617C201.531 16.2773 201.105 16.7383 200.59 17.1445C200.074 17.543 199.469 17.875 198.773 18.1406L202.758 24H198.211L194.766 18.7969H194.66L189.035 18.7852V24H185.32V5.68359ZM194.73 15.5742C195.434 15.5742 196.047 15.4922 196.57 15.3281C197.102 15.1641 197.543 14.9336 197.895 14.6367C198.254 14.3398 198.52 13.9805 198.691 13.5586C198.871 13.1289 198.961 12.6523 198.961 12.1289C198.961 11.1055 198.609 10.3164 197.906 9.76172C197.203 9.19922 196.145 8.91797 194.73 8.91797H189.035V15.5742H194.73ZM212.895 19.4648L204.891 5.68359H209.098L214.734 16.1016L220.301 5.68359H224.508L216.609 19.4414V24H212.895V19.4648Z" fill="#972C2C"/>
<circle cx="12" cy="15" r="12" fill="#972C2C"/>
</svg>
