<svg width="51" height="51" viewBox="0 0 51 51" fill="none" xmlns="http://www.w3.org/2000/svg">
<path d="M25.5 0C11.4176 0 0 11.4176 0 25.5C0 39.5824 11.4176 51 25.5 51C39.5824 51 51 39.5824 51 25.5C51 11.4176 39.5824 0 25.5 0ZM38.0247 17.4696L33.8385 37.1896C33.5304 38.5879 32.6974 38.9279 31.535 38.2691L25.16 33.5729L22.0873 36.5351C21.9367 36.73 21.7435 36.8879 21.5225 36.9965C21.3015 37.1052 21.0585 37.1618 20.8122 37.162H20.8016L21.2542 30.6723L33.0693 20.0005C33.5793 19.5479 32.9545 19.2908 32.2766 19.7434L17.68 28.9361L11.39 26.9726C10.03 26.5412 9.99175 25.6126 11.6769 24.9454L36.2546 15.4721C37.3979 15.0556 38.3924 15.7441 38.0226 17.4718L38.0247 17.4696Z" fill="#444444"/>
</svg>
